<svg xmlns="http://www.w3.org/2000/svg" viewBox="0 0 400 100" width="200" height="50">
  <!-- Solid White Background -->
  <rect width="100%" height="100%" fill="#ffffff" rx="4"/>
  
  <!-- Shield Icon -->
  <g transform="translate(10, 5) scale(0.9)">
    <path d="M50 5 L10 20 L10 50 C10 75 30 90 50 95 C70 90 90 75 90 50 L90 20 Z" fill="none" stroke="#D4AF37" stroke-width="8" stroke-linejoin="round"/>
    <path d="M50 15 L22 26 L22 50 C22 68 35 80 50 84 C65 80 78 68 78 50 L78 26 Z" fill="#D4AF37"/>
    <path d="M50 20 L50 78 C40 75 30 65 30 50 L30 30 Z" fill="rgba(255,255,255,0.2)"/>
  </g>
  <!-- Text -->
  <text x="120" y="65" font-family="'Inter', sans-serif" font-weight="600" font-size="40" fill="#1a1a1a" letter-spacing="2">VANGUARD</text>
</svg>
